<?xml version="1.0" encoding="utf-8"?>
<!-- Generator: Adobe Illustrator 23.0.4, SVG Export Plug-In . SVG Version: 6.00 Build 0)  -->
<svg version="1.1" id="Layer_1" xmlns="http://www.w3.org/2000/svg" xmlns:xlink="http://www.w3.org/1999/xlink" x="0px" y="0px"
	 viewBox="0 0 200 200" style="enable-background:new 0 0 200 200;" xml:space="preserve">
<style type="text/css">
	.st0{fill:#DDB784;}
	.st1{fill:#B98538;}
	.st2{fill:#C7B6BB;}
	.st3{fill:#EF3837;}
</style>
<g>
	<g>
		<path d="M101.12,108.27c-0.2-1.85-0.59-3.44-1.17-4.78c-0.6-1.34-1.5-2.56-2.7-3.65c-1.22-1.08-2.81-2.3-4.76-3.64
			c-2.65-1.77-5.09-3.24-7.32-4.41c-2.24-1.17-4.01-2.22-5.33-3.15c-0.15-0.09-0.29-0.19-0.43-0.29c-1.33-0.89-2.14-1.79-2.5-2.65
			c-0.14-0.32-0.25-0.72-0.32-1.17c-0.19-0.86-0.26-1.97-0.26-3.3v-9.81c0-1.77,0.05-3.19,0.17-4.29c0.12-1.08,0.37-1.9,0.76-2.45
			c0.4-0.54,0.96-0.93,1.71-1.13c0.74-0.22,1.77-0.32,3.1-0.32c1.25,0,2.27,0.11,3.05,0.32c0.79,0.2,1.37,0.59,1.76,1.13
			c0.4,0.56,0.65,1.37,0.77,2.45c0.11,1.09,0.17,2.51,0.17,4.29v12.32h13.14V71.42c0-4.61-0.25-8.31-0.76-11.07
			c-0.51-2.78-1.46-4.9-2.88-6.41c-1.4-1.51-3.33-2.5-5.8-2.96c-2.47-0.46-5.69-0.69-9.68-0.69c-1.42,0-2.73,0.03-3.95,0.08
			c-2.24,0.11-4.13,0.32-5.72,0.62c-2.47,0.46-4.39,1.45-5.75,2.96c-1.37,1.51-2.31,3.64-2.82,6.41c-0.29,1.6-0.51,3.52-0.62,5.74
			c-0.09,1.62-0.14,3.39-0.14,5.33v9.56c0,2.34,0.08,4.32,0.23,5.91c0.15,1.59,0.48,3.02,1,4.27c0.51,1.26,1.25,2.42,2.22,3.47
			c0.97,1.05,2.28,2.16,3.93,3.33c1.09,0.76,2.33,1.56,3.7,2.39c1.36,0.83,2.71,1.65,4.04,2.45c1.33,0.8,2.58,1.56,3.76,2.27
			c1.17,0.71,2.14,1.36,2.93,1.94c1.48,1.09,2.37,2.22,2.7,3.41c0.31,1.17,0.46,3.1,0.46,5.78v14.97c0,3.44-0.34,5.66-1,6.66
			c-0.66,1-2.24,1.51-4.75,1.51c-1.25,0-2.25-0.11-2.99-0.32c-0.74-0.2-1.31-0.6-1.7-1.19c-0.39-0.59-0.65-1.4-0.76-2.45
			c-0.12-1.05-0.19-2.45-0.19-4.21v-19.75H63.29v19.75c0,4.69,0.28,8.42,0.82,11.19c0.56,2.76,1.53,4.86,2.95,6.28
			c1.4,1.43,3.31,2.37,5.74,2.84c2.44,0.46,5.55,0.69,9.39,0.69c3.99,0,7.23-0.23,9.73-0.69c2.51-0.46,4.46-1.42,5.87-2.9
			c1.4-1.46,2.36-3.58,2.87-6.35c0.51-2.76,0.77-6.45,0.77-11.06v-15.99C101.42,112.42,101.31,110.12,101.12,108.27z"/>
		<path d="M150.09,93.68V71.16c0-4.61-0.26-8.28-0.77-10.99c-0.51-2.73-1.46-4.83-2.87-6.29c-1.4-1.46-3.33-2.44-5.75-2.9
			c-2.42-0.46-5.5-0.69-9.27-0.69c-3.82,0-7,0.23-9.5,0.69s-4.47,1.43-5.92,2.9c-1.45,1.46-2.45,3.58-2.99,6.35
			c-0.56,2.76-0.82,6.41-0.82,10.93v60.01c0,0.57,0,1.13,0.02,1.67c0.05,3.84,0.29,6.97,0.74,9.39c0.51,2.78,1.46,4.89,2.87,6.35
			c1.42,1.48,3.36,2.44,5.87,2.9c1.34,0.25,2.91,0.43,4.69,0.56c1.53,0.09,3.21,0.14,5.04,0.14c3.76,0,6.85-0.23,9.27-0.69
			c2.42-0.46,4.35-1.4,5.75-2.84c0.77-0.79,1.4-1.77,1.91-2.96c0.42-0.97,0.72-2.08,0.96-3.31c0.51-2.78,0.77-6.51,0.77-11.19
			v-23.02h-13.03v23.02c0,1.76-0.05,3.16-0.17,4.21c-0.12,1.05-0.39,1.87-0.82,2.45c-0.43,0.59-1.02,0.99-1.76,1.19
			c-0.76,0.22-1.71,0.32-2.88,0.32c-1.25,0-2.25-0.11-2.99-0.32c-0.74-0.2-1.33-0.6-1.76-1.19c-0.43-0.59-0.69-1.4-0.82-2.45
			c-0.12-1.05-0.17-2.45-0.17-4.21V71.16c0-1.59,0.05-2.91,0.17-3.96c0.12-1.05,0.39-1.87,0.82-2.45c0.43-0.59,1.02-0.99,1.76-1.19
			c0.74-0.22,1.74-0.32,2.99-0.32c1.17,0,2.13,0.11,2.88,0.32c0.74,0.2,1.33,0.59,1.76,1.13c0.43,0.56,0.69,1.34,0.82,2.39
			c0.12,1.05,0.17,2.42,0.17,4.09v22.53H150.09z"/>
	</g>
	<polygon class="st0" points="150.86,149.22 161.05,180.87 133.78,161.89 	"/>
	<path class="st1" d="M82.05,63.23c-1.33,0-2.36,0.11-3.1,0.32c-0.76,0.2-1.31,0.59-1.71,1.13c-0.39,0.56-0.63,1.37-0.76,2.45
		c-0.12,1.09-0.17,2.51-0.17,4.29v9.81c0,1.33,0.08,2.44,0.26,3.3L62.96,66.08l-4.89-6.61l17.13-12.72l2.67,3.61l23.07,31.19v2.19
		H87.8V71.42c0-1.77-0.06-3.19-0.17-4.29c-0.12-1.08-0.37-1.9-0.77-2.45c-0.39-0.54-0.97-0.93-1.76-1.13
		C84.32,63.34,83.3,63.23,82.05,63.23z"/>
	<path d="M101.12,108.27c0.19,1.85,0.29,4.15,0.29,6.91v3.01L79.4,88.35c0.14,0.11,0.28,0.2,0.43,0.29c1.33,0.93,3.1,1.97,5.33,3.15
		c2.24,1.17,4.67,2.64,7.32,4.41c1.96,1.34,3.55,2.56,4.76,3.64c1.2,1.09,2.1,2.31,2.7,3.65
		C100.54,104.83,100.92,106.42,101.12,108.27z"/>
	<path class="st1" d="M149.88,147.73l-17.3,12.67l-6.18-8.37l-14.17-19.2c-0.02-0.54-0.02-1.09-0.02-1.67V96.78l13.49,18.26v16.13
		c0,1.76,0.05,3.16,0.17,4.21c0.12,1.05,0.39,1.87,0.82,2.45c0.43,0.59,1.02,0.99,1.76,1.19c0.74,0.22,1.74,0.32,2.99,0.32
		c1.17,0,2.13-0.11,2.88-0.32c0.74-0.2,1.33-0.6,1.76-1.19c0.43-0.59,0.69-1.4,0.82-2.45c0.12-1.05,0.17-2.45,0.17-4.21v-0.77
		l11.3,15.28L149.88,147.73z"/>
	<polygon class="st2" points="70.26,40.14 74.67,46.04 57.63,58.83 53.18,52.89 	"/>
	<path class="st3" d="M69.53,38.98l-8.59-11.51c0,0-6.08-8.08-15.19-1.68c0,0-7.36,6.3-2.08,14.17s8.59,11.73,8.59,11.73
		L69.53,38.98z"/>
	<polygon points="154.43,176.25 158.58,173.18 161.05,180.87 	"/>
</g>
</svg>
